<svg width="301" height="102" viewBox="0 0 301 102" fill="none" xmlns="http://www.w3.org/2000/svg">
<path d="M19.35 62.4V99.75H0V42.75L19.35 62.4ZM73.2 102L0 27.75V0L53.7 54.6V2.1H73.2V102Z" fill="#FF0000"/>
<path d="M136.69 2.1H176.89V21.6H136.69V2.1ZM136.69 41.25H176.89V60.6H136.69V41.25ZM126.19 2.1V99.75H106.69V2.1H126.19ZM136.69 80.4H176.89V99.75H136.69V80.4Z" fill="#FF0000"/>
<path d="M218.864 45.75H199.064C200.464 32.45 205.864 21.5 215.264 12.9C224.664 4.3 236.214 0 249.914 0C263.414 0 275.214 4.4 285.314 13.2C295.414 22 300.464 32.85 300.464 45.75H280.664C279.664 38.35 276.364 32.1 270.764 27C265.164 21.9 258.264 19.35 250.064 19.35C241.864 19.35 234.914 21.9 229.214 27C223.614 32.1 220.164 38.35 218.864 45.75ZM218.864 55.65C219.864 63.05 223.164 69.35 228.764 74.55C234.464 79.65 241.514 82.2 249.914 82.2C258.214 82.2 265.264 79.6 271.064 74.4C276.864 69.1 280.064 62.85 280.664 55.65H300.464C300.464 68.55 295.364 79.45 285.164 88.35C275.064 97.15 263.314 101.55 249.914 101.55C236.514 101.55 225.014 97.25 215.414 88.65C205.914 79.95 200.464 68.95 199.064 55.65H218.864Z" fill="#FF0000"/>
</svg>

